<mxfile host="Electron" agent="Mozilla/5.0 (Windows NT 10.0; Win64; x64) AppleWebKit/537.36 (KHTML, like Gecko) draw.io/24.7.5 Chrome/126.0.6478.183 Electron/31.3.0 Safari/537.36" version="24.7.5">
  <diagram name="第 1 页" id="MDdVxcYaAaYKQ9CHyOfM">
    <mxGraphModel dx="1098" dy="828" grid="1" gridSize="10" guides="1" tooltips="1" connect="1" arrows="1" fold="1" page="1" pageScale="1" pageWidth="827" pageHeight="1169" math="0" shadow="0">
      <root>
        <mxCell id="0" />
        <mxCell id="1" parent="0" />
        <mxCell id="qfOiHxBLvqAHSzjOhyaU-3" style="edgeStyle=orthogonalEdgeStyle;rounded=0;orthogonalLoop=1;jettySize=auto;html=1;" edge="1" parent="1" source="qfOiHxBLvqAHSzjOhyaU-1" target="qfOiHxBLvqAHSzjOhyaU-2">
          <mxGeometry relative="1" as="geometry" />
        </mxCell>
        <mxCell id="qfOiHxBLvqAHSzjOhyaU-4" value="&lt;font style=&quot;font-size: 20px;&quot;&gt;bindgen&lt;/font&gt;" style="edgeLabel;html=1;align=center;verticalAlign=middle;resizable=0;points=[];" vertex="1" connectable="0" parent="qfOiHxBLvqAHSzjOhyaU-3">
          <mxGeometry x="-0.02" y="2" relative="1" as="geometry">
            <mxPoint as="offset" />
          </mxGeometry>
        </mxCell>
        <mxCell id="qfOiHxBLvqAHSzjOhyaU-1" value="&lt;font style=&quot;font-size: 30px;&quot;&gt;lwext4&lt;/font&gt;&lt;div&gt;&lt;font style=&quot;font-size: 30px;&quot;&gt;（in c）&lt;/font&gt;&lt;/div&gt;" style="rounded=0;whiteSpace=wrap;html=1;" vertex="1" parent="1">
          <mxGeometry x="90" y="290" width="150" height="250" as="geometry" />
        </mxCell>
        <mxCell id="qfOiHxBLvqAHSzjOhyaU-6" style="edgeStyle=orthogonalEdgeStyle;rounded=0;orthogonalLoop=1;jettySize=auto;html=1;entryX=0;entryY=0.5;entryDx=0;entryDy=0;" edge="1" parent="1" source="qfOiHxBLvqAHSzjOhyaU-2" target="qfOiHxBLvqAHSzjOhyaU-5">
          <mxGeometry relative="1" as="geometry" />
        </mxCell>
        <mxCell id="qfOiHxBLvqAHSzjOhyaU-7" value="&lt;font style=&quot;font-size: 20px;&quot;&gt;wrapper&lt;/font&gt;" style="edgeLabel;html=1;align=center;verticalAlign=middle;resizable=0;points=[];" vertex="1" connectable="0" parent="qfOiHxBLvqAHSzjOhyaU-6">
          <mxGeometry x="-0.075" y="-4" relative="1" as="geometry">
            <mxPoint y="-4" as="offset" />
          </mxGeometry>
        </mxCell>
        <mxCell id="qfOiHxBLvqAHSzjOhyaU-2" value="&lt;font style=&quot;font-size: 30px;&quot;&gt;lwext4&lt;/font&gt;&lt;div&gt;&lt;font style=&quot;font-size: 30px;&quot;&gt;（in rust）&lt;/font&gt;&lt;/div&gt;" style="rounded=0;whiteSpace=wrap;html=1;" vertex="1" parent="1">
          <mxGeometry x="338.5" y="290" width="150" height="250" as="geometry" />
        </mxCell>
        <mxCell id="qfOiHxBLvqAHSzjOhyaU-5" value="&lt;span style=&quot;font-size: 30px;&quot;&gt;ext4&lt;/span&gt;&lt;div&gt;&lt;span style=&quot;font-size: 30px;&quot;&gt;file system&lt;/span&gt;&lt;/div&gt;" style="rounded=0;whiteSpace=wrap;html=1;" vertex="1" parent="1">
          <mxGeometry x="580" y="290" width="150" height="250" as="geometry" />
        </mxCell>
      </root>
    </mxGraphModel>
  </diagram>
</mxfile>
